<svg width="256" height="256" viewBox="0 0 256 256" fill="none" xmlns="http://www.w3.org/2000/svg">
<g clip-path="url(#clip0_1_2)">
<circle cx="128.415" cy="119.415" r="88" transform="rotate(18.5405 128.415 119.415)" fill="url(#paint0_linear_1_2)"/>
<path d="M146.664 42.2534L146.795 41.6518L148.338 40.0978L148.885 40.2173L148.709 41.0195L148.397 40.9512L147.564 41.7964L147.559 41.8187L149.253 42.1892L149.122 42.7908L146.664 42.2534ZM147.954 43.0025L148.092 42.373L148.166 42.1148L148.595 40.1539L149.319 40.3123L148.695 43.1646L147.954 43.0025Z" fill="#2A2A2A"/>
<path d="M149.349 43.3075L149.471 42.7505L150.728 42.103C150.811 42.0599 150.884 42.0184 150.945 41.9783C151.007 41.9374 151.058 41.8926 151.097 41.8437C151.137 41.795 151.164 41.7372 151.179 41.6704C151.195 41.597 151.193 41.5309 151.173 41.472C151.153 41.4133 151.119 41.364 151.071 41.3242C151.022 41.2834 150.962 41.2552 150.891 41.2396C150.819 41.224 150.753 41.2245 150.692 41.2413C150.631 41.2583 150.58 41.2915 150.538 41.3407C150.497 41.3899 150.467 41.4544 150.449 41.5343L149.714 41.3734C149.758 41.1729 149.84 41.01 149.962 40.8849C150.084 40.7597 150.236 40.6761 150.417 40.6341C150.599 40.592 150.8 40.5952 151.021 40.6435C151.249 40.6935 151.439 40.7734 151.59 40.8833C151.743 40.9925 151.85 41.123 151.912 41.2747C151.975 41.4267 151.987 41.5913 151.949 41.7686C151.925 41.8782 151.878 41.9823 151.809 42.081C151.74 42.1788 151.632 42.2802 151.485 42.3853C151.339 42.4904 151.137 42.6098 150.88 42.7433L150.564 42.9076L150.56 42.9244L151.675 43.1681L151.539 43.7864L149.349 43.3075Z" fill="#2A2A2A"/>
<path d="M152.364 43.5421L152.584 42.9668L154.341 41.6601L154.863 41.8595L154.57 42.6266L154.272 42.5127L153.322 43.2243L153.314 43.2456L154.934 43.8643L154.714 44.4396L152.364 43.5421ZM153.528 44.475L153.758 43.8731L153.87 43.6288L154.586 41.7537L155.279 42.0183L154.237 44.7457L153.528 44.475Z" fill="#2A2A2A"/>
<path d="M154.862 44.9845L155.066 44.4518L156.405 43.9988C156.494 43.9687 156.572 43.9384 156.638 43.9078C156.706 43.8768 156.763 43.84 156.809 43.7974C156.855 43.7552 156.891 43.7022 156.915 43.6382C156.942 43.5681 156.95 43.5024 156.939 43.4411C156.929 43.3802 156.902 43.3264 156.86 43.2798C156.818 43.2323 156.763 43.1954 156.695 43.1693C156.626 43.1432 156.561 43.1339 156.498 43.1414C156.436 43.1493 156.38 43.1744 156.331 43.2168C156.283 43.2592 156.244 43.3186 156.215 43.395L155.511 43.1263C155.584 42.9345 155.691 42.7858 155.83 42.6802C155.969 42.5746 156.131 42.5146 156.317 42.5C156.503 42.4855 156.701 42.5186 156.912 42.5993C157.131 42.6828 157.307 42.7901 157.44 42.9213C157.574 43.0519 157.661 43.1969 157.7 43.3562C157.739 43.5159 157.727 43.6805 157.662 43.8501C157.622 43.9548 157.56 44.0509 157.477 44.1381C157.394 44.2245 157.272 44.3087 157.112 44.3908C156.951 44.4729 156.734 44.5609 156.46 44.6546L156.123 44.77L156.117 44.786L157.182 45.193L156.956 45.7843L154.862 44.9845Z" fill="#2A2A2A"/>
<path d="M157.808 45.6656L158.112 45.1295L160.044 44.0992L160.531 44.3742L160.127 45.0891L159.848 44.9319L158.803 45.4941L158.792 45.514L160.302 46.3671L159.998 46.9033L157.808 45.6656ZM158.82 46.7616L159.138 46.2006L159.284 45.9757L160.273 44.2283L160.918 44.5931L159.481 47.1348L158.82 46.7616Z" fill="#2A2A2A"/>
<path d="M160.063 47.4641L160.344 46.9676L161.736 46.7193C161.829 46.7027 161.91 46.6843 161.98 46.6641C162.052 46.6435 162.114 46.6155 162.165 46.5803C162.218 46.5455 162.261 46.4983 162.295 46.4388C162.332 46.3734 162.349 46.3096 162.347 46.2474C162.346 46.1856 162.328 46.1285 162.293 46.0761C162.259 46.0228 162.21 45.9782 162.146 45.9422C162.083 45.9062 162.019 45.8872 161.956 45.8853C161.893 45.8838 161.835 45.9004 161.78 45.935C161.725 45.9697 161.678 46.0226 161.638 46.0938L160.982 45.7233C161.083 45.5446 161.211 45.4134 161.364 45.3297C161.517 45.246 161.687 45.2108 161.872 45.2241C162.058 45.2374 162.25 45.2997 162.447 45.411C162.65 45.5261 162.808 45.6584 162.92 45.808C163.033 45.9572 163.097 46.1134 163.112 46.2767C163.128 46.4405 163.091 46.6014 163.001 46.7595C162.946 46.8571 162.871 46.9429 162.776 47.0167C162.681 47.0898 162.548 47.1549 162.377 47.2122C162.206 47.2695 161.978 47.324 161.693 47.3759L161.342 47.4398L161.334 47.4547L162.327 48.016L162.015 48.567L160.063 47.4641Z" fill="#2A2A2A"/>
<path d="M162.875 48.5765L163.255 48.0916L165.32 47.3607L165.76 47.7052L165.254 48.3518L165.002 48.155L163.885 48.5551L163.871 48.5731L165.236 49.6417L164.856 50.1266L162.875 48.5765ZM163.713 49.811L164.11 49.3036L164.289 49.1031L165.526 47.5224L166.11 47.9794L164.31 50.2785L163.713 49.811Z" fill="#2A2A2A"/>
<path d="M164.837 50.6908L165.189 50.2418L166.602 50.2037C166.696 50.201 166.779 50.195 166.852 50.1854C166.926 50.1757 166.991 50.1573 167.047 50.1301C167.105 50.1036 167.154 50.0633 167.196 50.0094C167.243 49.9503 167.269 49.8898 167.277 49.828C167.285 49.7668 167.276 49.7076 167.249 49.6506C167.223 49.5928 167.181 49.5414 167.124 49.4963C167.066 49.4512 167.006 49.423 166.944 49.4116C166.882 49.4008 166.822 49.4085 166.763 49.4347C166.703 49.4608 166.649 49.5061 166.598 49.5704L166.005 49.1065C166.132 48.9448 166.277 48.834 166.441 48.7741C166.605 48.7142 166.778 48.7046 166.96 48.7454C167.142 48.7863 167.322 48.8764 167.5 49.0158C167.684 49.1599 167.82 49.3143 167.909 49.4789C167.999 49.6433 168.039 49.8073 168.029 49.971C168.02 50.1353 167.959 50.2889 167.847 50.4318C167.778 50.5201 167.691 50.5937 167.586 50.6526C167.481 50.7107 167.34 50.7553 167.162 50.7864C166.984 50.8176 166.751 50.8376 166.461 50.8464L166.105 50.8573L166.094 50.8708L166.993 51.5738L166.603 52.0722L164.837 50.6908Z" fill="#2A2A2A"/>
<path d="M167.452 52.2098L167.9 51.7868L170.05 51.3718L170.434 51.778L169.837 52.342L169.618 52.1098L168.453 52.339L168.436 52.3547L169.627 53.6148L169.18 54.0378L167.452 52.2098ZM168.096 53.5552L168.564 53.1127L168.771 52.941L170.23 51.5624L170.74 52.1013L168.617 54.1065L168.096 53.5552Z" fill="#2A2A2A"/>
<path d="M169.076 54.5928L169.491 54.2011L170.895 54.374C170.988 54.3854 171.071 54.3918 171.144 54.3932C171.219 54.3946 171.286 54.3861 171.346 54.3677C171.406 54.3499 171.461 54.3175 171.511 54.2705C171.565 54.2189 171.601 54.1631 171.617 54.1031C171.635 54.0437 171.634 53.9839 171.617 53.9235C171.599 53.8625 171.566 53.8054 171.515 53.7522C171.465 53.699 171.41 53.6622 171.35 53.6417C171.291 53.6218 171.23 53.6204 171.168 53.6375C171.105 53.6546 171.044 53.6912 170.985 53.7473L170.468 53.2002C170.617 53.0592 170.777 52.9713 170.948 52.9364C171.119 52.9016 171.292 52.9179 171.466 52.9854C171.639 53.0528 171.804 53.1688 171.959 53.3332C172.12 53.5031 172.232 53.6761 172.294 53.852C172.359 54.0279 172.374 54.1961 172.34 54.3565C172.306 54.5176 172.224 54.6604 172.092 54.7851C172.01 54.8621 171.913 54.9219 171.8 54.9644C171.688 55.0063 171.541 55.0294 171.361 55.0337C171.181 55.038 170.947 55.023 170.659 54.9886L170.305 54.9463L170.293 54.958L171.076 55.787L170.616 56.2218L169.076 54.5928Z" fill="#2A2A2A"/>
<path d="M171.435 56.4843L171.941 56.1328L174.13 56.0428L174.449 56.5016L173.774 56.9703L173.592 56.7081L172.406 56.7613L172.387 56.7743L173.377 58.1977L172.871 58.5493L171.435 56.4843ZM171.871 57.9106L172.401 57.5428L172.631 57.4039L174.279 56.2582L174.703 56.8669L172.305 58.5334L171.871 57.9106Z" fill="#2A2A2A"/>
<path d="M172.687 59.0827L173.155 58.7572L174.517 59.1373C174.607 59.1624 174.689 59.1811 174.761 59.1934C174.835 59.206 174.902 59.2076 174.964 59.1982C175.026 59.1896 175.086 59.1658 175.142 59.1267C175.204 59.0838 175.247 59.034 175.272 58.977C175.298 58.9209 175.307 58.8617 175.298 58.7994C175.29 58.7365 175.266 58.675 175.224 58.6149C175.182 58.5548 175.133 58.5102 175.077 58.481C175.021 58.4525 174.961 58.4421 174.897 58.4497C174.833 58.4572 174.767 58.4843 174.7 58.531L174.27 57.9129C174.439 57.7957 174.61 57.7327 174.785 57.7238C174.959 57.7148 175.127 57.7567 175.289 57.8492C175.45 57.9418 175.596 58.0809 175.725 58.2667C175.858 58.4586 175.943 58.6463 175.979 58.8296C176.017 59.0132 176.006 59.1817 175.949 59.3352C175.892 59.4895 175.788 59.6185 175.639 59.7221C175.547 59.7861 175.442 59.8307 175.324 59.856C175.207 59.8807 175.059 59.8817 174.88 59.8591C174.701 59.8365 174.472 59.7867 174.193 59.7099L173.849 59.6153L173.835 59.6251L174.486 60.5616L173.966 60.9229L172.687 59.0827Z" fill="#2A2A2A"/>
<path d="M174.737 61.3045L175.29 61.0323L177.467 61.2693L177.714 61.7706L176.978 62.1336L176.836 61.8472L175.656 61.723L175.635 61.7331L176.402 63.2881L175.849 63.5604L174.737 61.3045ZM174.956 62.7799L175.534 62.4951L175.782 62.3919L177.583 61.5046L177.911 62.1696L175.291 63.4602L174.956 62.7799Z" fill="#2A2A2A"/>
<path d="M175.587 64.0603L176.099 63.8082L177.389 64.387C177.475 64.4253 177.552 64.4559 177.622 64.4789C177.693 64.5022 177.759 64.5139 177.822 64.5138C177.885 64.5146 177.947 64.4999 178.008 64.4696C178.076 64.4364 178.126 64.3936 178.16 64.3411C178.194 64.2894 178.211 64.2321 178.212 64.1692C178.213 64.1059 178.198 64.0414 178.166 63.9758C178.133 63.9101 178.091 63.8587 178.04 63.8214C177.989 63.785 177.932 63.7657 177.867 63.7636C177.802 63.7616 177.733 63.7786 177.66 63.8147L177.327 63.1395C177.511 63.0488 177.69 63.012 177.864 63.0291C178.038 63.0463 178.198 63.1127 178.344 63.2283C178.49 63.3439 178.613 63.5032 178.713 63.7061C178.817 63.9158 178.872 64.114 178.881 64.3006C178.89 64.4877 178.855 64.6528 178.775 64.796C178.696 64.9401 178.574 65.0522 178.412 65.1325C178.311 65.1821 178.2 65.2105 178.08 65.2179C177.96 65.2249 177.814 65.2038 177.64 65.1548C177.467 65.1058 177.248 65.0225 176.983 64.9049L176.657 64.7602L176.642 64.7678L177.146 65.7908L176.578 66.0706L175.587 64.0603Z" fill="#2A2A2A"/>
<path d="M177.283 66.5628L177.871 66.376L179.988 66.9348L180.158 67.4673L179.375 67.7164L179.278 67.4121L178.129 67.1135L178.108 67.1204L178.634 68.7723L178.047 68.9591L177.283 66.5628ZM177.28 68.0543L177.894 67.8588L178.155 67.7937L180.068 67.1847L180.293 67.8911L177.51 68.777L177.28 68.0543Z" fill="#2A2A2A"/>
<path d="M177.713 69.4144L178.257 69.2414L179.446 70.0059C179.525 70.0565 179.597 70.0984 179.663 70.1314C179.729 70.1651 179.793 70.1866 179.855 70.1958C179.917 70.206 179.981 70.2007 180.046 70.1799C180.118 70.1571 180.174 70.1223 180.215 70.0753C180.256 70.0293 180.282 69.9752 180.292 69.9131C180.303 69.8508 180.298 69.7847 180.275 69.715C180.253 69.6453 180.219 69.5881 180.174 69.5436C180.13 69.5001 180.075 69.4724 180.012 69.4608C179.948 69.4491 179.877 69.4556 179.8 69.4804L179.571 68.7632C179.767 68.7009 179.949 68.6912 180.119 68.734C180.288 68.7769 180.436 68.8664 180.563 69.0024C180.69 69.1385 180.788 69.3143 180.857 69.5299C180.928 69.7527 180.954 69.9569 180.934 70.1427C180.916 70.3291 180.856 70.4872 180.756 70.6169C180.656 70.7475 180.519 70.8403 180.346 70.8954C180.239 70.9294 180.126 70.9411 180.006 70.9305C179.886 70.9196 179.744 70.8769 179.58 70.8026C179.416 70.7282 179.211 70.6132 178.967 70.4575L178.667 70.2659L178.65 70.2711L178.997 71.3578L178.393 71.5499L177.713 69.4144Z" fill="#2A2A2A"/>
<path d="M179.017 72.1417L179.626 72.0444L181.637 72.9125L181.725 73.4643L180.914 73.5941L180.863 73.2787L179.772 72.8123L179.749 72.8159L180.023 74.5277L179.415 74.625L179.017 72.1417ZM178.791 73.6159L179.428 73.5141L179.695 73.4886L181.678 73.1715L181.795 73.9035L178.911 74.3648L178.791 73.6159Z" fill="#2A2A2A"/>
<path d="M179.017 75.0254L179.58 74.9353L180.642 75.8685C180.713 75.9303 180.778 75.9825 180.838 76.0249C180.899 76.0681 180.959 76.0989 181.019 76.1173C181.079 76.1365 181.142 76.1408 181.21 76.13C181.284 76.1181 181.345 76.092 181.392 76.0517C181.44 76.0123 181.474 75.9627 181.493 75.9028C181.513 75.8428 181.517 75.7767 181.506 75.7044C181.494 75.6321 181.47 75.5706 181.432 75.5199C181.394 75.4701 181.344 75.4347 181.283 75.4137C181.222 75.3927 181.151 75.3886 181.07 75.4016L180.951 74.6583C181.154 74.6258 181.336 74.6434 181.497 74.711C181.658 74.7786 181.791 74.8892 181.897 75.0427C182.002 75.1962 182.073 75.3846 182.109 75.608C182.146 75.8389 182.14 76.0447 182.093 76.2255C182.047 76.4071 181.965 76.5545 181.846 76.6678C181.728 76.782 181.579 76.8535 181.4 76.8822C181.289 76.8999 181.175 76.8945 181.058 76.8661C180.942 76.8375 180.808 76.7743 180.656 76.6762C180.505 76.5782 180.32 76.4341 180.102 76.2437L179.833 76.0095L179.816 76.0122L179.996 77.1384L179.371 77.2384L179.017 75.0254Z" fill="#2A2A2A"/>
<path d="M179.9 77.9166L180.516 77.911L182.375 79.0689L182.38 79.6278L181.559 79.6352L181.556 79.3159L180.546 78.692L180.523 78.6922L180.539 80.4257L179.923 80.4313L179.9 77.9166ZM179.457 79.3406L180.101 79.3348L180.37 79.3494L182.378 79.3313L182.384 80.0726L179.464 80.099L179.457 79.3406Z" fill="#2A2A2A"/>
<path d="M179.47 80.768L180.04 80.7628L180.951 81.8438C181.012 81.9155 181.069 81.9767 181.121 82.0276C181.175 82.0794 181.23 82.1188 181.286 82.1459C181.343 82.1739 181.405 82.1876 181.474 82.1869C181.549 82.1863 181.613 82.1695 181.666 82.1367C181.719 82.1049 181.759 82.0608 181.787 82.0045C181.816 81.9481 181.83 81.8834 181.83 81.8102C181.829 81.737 181.814 81.6725 181.784 81.6167C181.754 81.5618 181.71 81.5195 181.653 81.4896C181.595 81.4597 181.526 81.4451 181.444 81.4458L181.437 80.6931C181.643 80.6913 181.82 80.7358 181.969 80.8266C182.118 80.9174 182.233 81.0466 182.315 81.2141C182.396 81.3816 182.438 81.5785 182.44 81.8046C182.442 82.0384 182.406 82.2412 182.333 82.413C182.26 82.5857 182.157 82.7192 182.023 82.8135C181.889 82.9089 181.731 82.9573 181.549 82.959C181.437 82.96 181.325 82.9377 181.213 82.8922C181.103 82.8466 180.98 82.7641 180.845 82.6446C180.709 82.5251 180.548 82.355 180.361 82.1343L180.13 81.8626L180.113 81.8628L180.123 83.0033L179.49 83.009L179.47 80.768Z" fill="#2A2A2A"/>
<path d="M179.912 83.7584L180.522 83.8447L182.188 85.2666L182.109 85.82L181.296 85.7049L181.341 85.3887L180.435 84.6214L180.413 84.6182L180.17 86.3347L179.56 86.2484L179.912 83.7584ZM179.261 85.1004L179.899 85.1907L180.162 85.2452L182.151 85.5264L182.047 86.2604L179.155 85.8514L179.261 85.1004Z" fill="#2A2A2A"/>
<path d="M179.061 86.5138L179.626 86.5937L180.366 87.7983C180.415 87.8782 180.462 87.9473 180.507 88.0054C180.552 88.0646 180.601 88.1118 180.652 88.147C180.704 88.183 180.763 88.2059 180.831 88.2155C180.906 88.226 180.971 88.219 181.029 88.1944C181.086 88.1708 181.132 88.1333 181.168 88.0817C181.205 88.0303 181.229 87.9684 181.239 87.8959C181.25 87.8235 181.244 87.7574 181.223 87.6978C181.201 87.6391 181.164 87.5907 181.112 87.5526C181.06 87.5145 180.993 87.4897 180.912 87.4782L181.018 86.7329C181.221 86.7617 181.39 86.8321 181.524 86.9441C181.658 87.0562 181.753 87.2011 181.808 87.3788C181.864 87.5566 181.875 87.7574 181.844 87.9814C181.811 88.2129 181.745 88.4081 181.647 88.567C181.55 88.7269 181.427 88.8436 181.281 88.9169C181.134 88.9911 180.971 89.0156 180.791 88.9901C180.68 88.9744 180.572 88.9357 180.469 88.874C180.366 88.8125 180.257 88.7126 180.141 88.5743C180.025 88.436 179.891 88.2437 179.739 87.9976L179.551 87.6946L179.534 87.6922L179.374 88.8215L178.747 88.7328L179.061 86.5138Z" fill="#2A2A2A"/>
<path d="M179.053 89.5367L179.643 89.7129L181.078 91.3671L180.918 91.9026L180.131 91.6677L180.222 91.3617L179.441 90.468L179.419 90.4615L178.923 92.1226L178.333 91.9464L179.053 89.5367ZM178.209 90.7668L178.827 90.9511L179.079 91.0442L181.003 91.6185L180.791 92.3288L177.992 91.4935L178.209 90.7668Z" fill="#2A2A2A"/>
<path d="M177.801 92.1345L178.347 92.2977L178.899 93.5991C178.936 93.6855 178.972 93.7607 179.007 93.8248C179.043 93.8902 179.084 93.944 179.13 93.9865C179.176 94.0299 179.232 94.0613 179.297 94.0809C179.369 94.1024 179.435 94.1053 179.495 94.0895C179.555 94.0747 179.607 94.0445 179.651 93.9989C179.695 93.9536 179.727 93.8959 179.748 93.8258C179.769 93.7557 179.774 93.6895 179.761 93.6273C179.749 93.5661 179.72 93.5127 179.674 93.4673C179.628 93.4218 179.566 93.3874 179.487 93.364L179.703 92.6427C179.9 92.7015 180.056 92.7962 180.172 92.927C180.287 93.0577 180.359 93.2151 180.388 93.3992C180.416 93.5832 180.398 93.7836 180.333 94.0003C180.266 94.2244 180.172 94.4076 180.052 94.5501C179.931 94.6937 179.793 94.7908 179.637 94.8415C179.481 94.893 179.316 94.8928 179.142 94.8409C179.034 94.8088 178.934 94.7545 178.84 94.6781C178.748 94.6019 178.655 94.4869 178.561 94.3329C178.467 94.1789 178.363 93.9688 178.249 93.7027L178.109 93.3751L178.092 93.3702L177.766 94.4631L177.159 94.282L177.801 92.1345Z" fill="#2A2A2A"/>
<path d="M177.341 95.1224L177.899 95.3846L179.071 97.2341L178.833 97.7398L178.09 97.3902L178.226 97.1012L177.587 96.1012L177.566 96.0915L176.828 97.6601L176.271 97.398L177.341 95.1224ZM176.324 96.213L176.907 96.4873L177.142 96.6169L178.96 97.4715L178.644 98.1423L176.001 96.8993L176.324 96.213Z" fill="#2A2A2A"/>
<path d="M175.716 97.5047L176.232 97.7474L176.584 99.1166C176.607 99.2074 176.632 99.2872 176.657 99.3559C176.683 99.4258 176.716 99.4852 176.755 99.534C176.793 99.5837 176.844 99.6231 176.906 99.6522C176.974 99.6842 177.039 99.6969 177.1 99.6903C177.162 99.6846 177.218 99.6624 177.267 99.6238C177.318 99.5856 177.359 99.5334 177.39 99.4672C177.421 99.401 177.435 99.3362 177.432 99.2729C177.429 99.2105 177.408 99.1534 177.37 99.1016C177.331 99.0498 177.275 99.0065 177.201 98.9717L177.521 98.2906C177.707 98.378 177.847 98.4949 177.942 98.6415C178.037 98.788 178.085 98.9544 178.086 99.1406C178.086 99.3268 178.039 99.5223 177.942 99.7269C177.843 99.9385 177.722 100.106 177.582 100.229C177.441 100.353 177.29 100.428 177.128 100.455C176.966 100.483 176.803 100.458 176.639 100.381C176.537 100.333 176.446 100.264 176.365 100.175C176.285 100.086 176.21 99.958 176.14 99.7917C176.07 99.6254 175.999 99.4022 175.926 99.1221L175.836 98.7773L175.82 98.77L175.335 99.802L174.762 99.5326L175.716 97.5047Z" fill="#2A2A2A"/>
<path d="M174.816 100.391L175.329 100.733L176.212 102.737L175.901 103.201L175.218 102.745L175.396 102.479L174.913 101.395L174.894 101.382L173.93 102.824L173.418 102.481L174.816 100.391ZM173.648 101.318L174.183 101.676L174.397 101.839L176.066 102.955L175.654 103.571L173.226 101.948L173.648 101.318Z" fill="#2A2A2A"/>
<path d="M172.854 102.504L173.328 102.821L173.472 104.227C173.482 104.321 173.494 104.403 173.509 104.475C173.524 104.548 173.547 104.612 173.579 104.666C173.609 104.72 173.653 104.767 173.71 104.805C173.773 104.847 173.835 104.869 173.897 104.872C173.959 104.875 174.017 104.862 174.072 104.831C174.128 104.801 174.176 104.755 174.217 104.694C174.257 104.633 174.281 104.571 174.288 104.508C174.294 104.446 174.282 104.387 174.251 104.33C174.221 104.273 174.171 104.221 174.103 104.176L174.522 103.55C174.693 103.664 174.814 103.801 174.886 103.96C174.958 104.119 174.981 104.291 174.953 104.475C174.926 104.659 174.85 104.845 174.724 105.033C174.594 105.228 174.45 105.375 174.293 105.476C174.135 105.577 173.975 105.629 173.811 105.632C173.646 105.635 173.488 105.586 173.337 105.485C173.244 105.423 173.164 105.342 173.098 105.241C173.032 105.141 172.977 105.004 172.932 104.829C172.888 104.654 172.851 104.423 172.82 104.135L172.783 103.78L172.768 103.771L172.134 104.719L171.608 104.367L172.854 102.504Z" fill="#2A2A2A"/>
<path d="M171.534 105.224L171.99 105.639L172.564 107.751L172.188 108.165L171.581 107.611L171.796 107.375L171.48 106.232L171.463 106.216L170.295 107.498L169.84 107.083L171.534 105.224ZM170.24 105.966L170.717 106.4L170.903 106.593L172.388 107.945L171.888 108.493L169.729 106.527L170.24 105.966Z" fill="#2A2A2A"/>
<path d="M169.278 107.021L169.7 107.405L169.633 108.817C169.628 108.911 169.628 108.995 169.632 109.068C169.636 109.142 169.65 109.209 169.673 109.267C169.695 109.326 169.731 109.378 169.782 109.424C169.838 109.475 169.896 109.506 169.957 109.518C170.018 109.531 170.077 109.526 170.136 109.503C170.196 109.482 170.25 109.444 170.299 109.39C170.349 109.336 170.381 109.278 170.397 109.217C170.413 109.156 170.41 109.096 170.388 109.035C170.366 108.974 170.325 108.916 170.265 108.861L170.772 108.304C170.924 108.443 171.023 108.596 171.071 108.764C171.118 108.932 171.115 109.105 171.061 109.283C171.006 109.461 170.903 109.634 170.751 109.801C170.593 109.974 170.429 110.098 170.258 110.174C170.087 110.251 169.921 110.279 169.758 110.257C169.595 110.235 169.446 110.164 169.312 110.041C169.229 109.966 169.162 109.873 169.111 109.764C169.061 109.655 169.027 109.511 169.009 109.332C168.992 109.152 168.989 108.918 169.002 108.629L169.018 108.273L169.005 108.261L168.237 109.104L167.769 108.678L169.278 107.021Z" fill="#2A2A2A"/>
<path d="M167.568 109.514L167.956 109.992L168.21 112.167L167.776 112.519L167.258 111.882L167.506 111.681L167.364 110.502L167.35 110.485L166.004 111.578L165.615 111.1L167.568 109.514ZM166.178 110.055L166.584 110.556L166.74 110.774L168.006 112.332L167.431 112.8L165.589 110.534L166.178 110.055Z" fill="#2A2A2A"/>
<path d="M165.069 110.955L165.429 111.398L165.152 112.784C165.134 112.876 165.121 112.959 165.114 113.032C165.107 113.106 165.111 113.173 165.125 113.234C165.138 113.296 165.166 113.353 165.209 113.406C165.256 113.465 165.31 113.504 165.368 113.525C165.426 113.547 165.486 113.551 165.547 113.538C165.609 113.525 165.669 113.496 165.726 113.45C165.783 113.403 165.823 113.351 165.848 113.293C165.873 113.235 165.879 113.175 165.866 113.111C165.854 113.048 165.822 112.985 165.77 112.921L166.355 112.447C166.484 112.606 166.56 112.772 166.582 112.945C166.604 113.119 166.575 113.289 166.494 113.457C166.414 113.625 166.286 113.781 166.111 113.923C165.929 114.071 165.748 114.169 165.568 114.219C165.388 114.27 165.219 114.272 165.061 114.226C164.903 114.181 164.767 114.088 164.652 113.947C164.582 113.86 164.529 113.758 164.495 113.643C164.462 113.528 164.45 113.38 164.459 113.2C164.468 113.02 164.501 112.788 164.556 112.504L164.625 112.154L164.614 112.141L163.729 112.86L163.329 112.369L165.069 110.955Z" fill="#2A2A2A"/>
<path d="M163.006 113.165L163.319 113.696L163.246 115.884L162.764 116.168L162.347 115.461L162.622 115.298L162.658 114.112L162.646 114.093L161.152 114.973L160.839 114.443L163.006 113.165ZM161.551 113.494L161.878 114.049L162 114.288L163.019 116.017L162.381 116.394L160.897 113.879L161.551 113.494Z" fill="#2A2A2A"/>
<path d="M160.321 114.218L160.61 114.71L160.13 116.039C160.098 116.127 160.073 116.207 160.055 116.278C160.037 116.35 160.031 116.418 160.035 116.48C160.039 116.543 160.059 116.604 160.093 116.663C160.132 116.727 160.178 116.774 160.233 116.804C160.287 116.834 160.346 116.847 160.408 116.843C160.472 116.84 160.535 116.82 160.598 116.783C160.661 116.745 160.709 116.7 160.743 116.646C160.775 116.593 160.79 116.534 160.787 116.469C160.784 116.404 160.762 116.337 160.721 116.267L161.369 115.884C161.474 116.061 161.524 116.237 161.52 116.411C161.516 116.586 161.461 116.75 161.357 116.905C161.253 117.059 161.103 117.193 160.908 117.308C160.706 117.427 160.513 117.497 160.327 117.52C160.141 117.543 159.974 117.52 159.825 117.451C159.676 117.383 159.555 117.27 159.462 117.114C159.405 117.017 159.369 116.909 159.352 116.79C159.336 116.671 159.347 116.524 159.382 116.347C159.418 116.17 159.485 115.946 159.583 115.673L159.703 115.337L159.694 115.323L158.711 115.902L158.389 115.357L160.321 114.218Z" fill="#2A2A2A"/>
<path d="M157.951 116.096L158.181 116.668L157.782 118.82L157.264 119.029L156.957 118.268L157.253 118.148L157.465 116.981L157.457 116.96L155.848 117.608L155.618 117.036L157.951 116.096ZM156.463 116.204L156.704 116.802L156.788 117.057L157.539 118.919L156.851 119.196L155.759 116.487L156.463 116.204Z" fill="#2A2A2A"/>
<path d="M155.139 116.738L155.352 117.266L154.678 118.509C154.634 118.592 154.597 118.667 154.569 118.735C154.54 118.803 154.524 118.869 154.519 118.931C154.514 118.994 154.524 119.057 154.549 119.121C154.578 119.19 154.616 119.244 154.666 119.281C154.715 119.319 154.771 119.34 154.834 119.346C154.897 119.352 154.962 119.342 155.03 119.314C155.098 119.287 155.153 119.249 155.194 119.201C155.234 119.153 155.257 119.097 155.264 119.032C155.271 118.968 155.259 118.898 155.229 118.822L155.927 118.541C156.004 118.731 156.027 118.913 155.997 119.085C155.967 119.257 155.889 119.411 155.763 119.548C155.636 119.685 155.468 119.796 155.259 119.88C155.042 119.968 154.84 120.008 154.653 120.003C154.466 119.998 154.303 119.951 154.167 119.86C154.029 119.77 153.926 119.641 153.858 119.473C153.816 119.369 153.796 119.257 153.798 119.136C153.8 119.016 153.832 118.872 153.893 118.702C153.955 118.533 154.055 118.321 154.192 118.066L154.36 117.752L154.354 117.736L153.296 118.162L153.059 117.575L155.139 116.738Z" fill="#2A2A2A"/>
<path d="M152.515 118.241L152.658 118.841L151.942 120.91L151.399 121.039L151.208 120.24L151.519 120.166L151.903 119.044L151.898 119.021L150.21 119.422L150.068 118.823L152.515 118.241ZM151.028 118.126L151.177 118.753L151.222 119.018L151.687 120.971L150.966 121.142L150.29 118.302L151.028 118.126Z" fill="#2A2A2A"/>
<path d="M149.639 118.456L149.771 119.011L148.919 120.14C148.863 120.215 148.816 120.283 148.778 120.346C148.739 120.41 148.713 120.472 148.699 120.533C148.684 120.595 148.685 120.658 148.701 120.725C148.718 120.798 148.749 120.857 148.793 120.901C148.835 120.946 148.887 120.975 148.949 120.99C149.01 121.006 149.076 121.005 149.147 120.988C149.219 120.971 149.278 120.942 149.326 120.9C149.373 120.859 149.404 120.807 149.421 120.744C149.437 120.682 149.436 120.611 149.417 120.531L150.15 120.357C150.197 120.557 150.193 120.74 150.138 120.905C150.082 121.071 149.982 121.212 149.837 121.328C149.692 121.445 149.509 121.529 149.289 121.582C149.061 121.636 148.855 121.646 148.672 121.613C148.487 121.58 148.334 121.509 148.212 121.4C148.089 121.29 148.007 121.147 147.965 120.97C147.939 120.861 147.935 120.747 147.955 120.628C147.975 120.51 148.028 120.372 148.114 120.214C148.201 120.055 148.331 119.86 148.504 119.629L148.718 119.343L148.714 119.327L147.604 119.591L147.458 118.975L149.639 118.456Z" fill="#2A2A2A"/>
<path d="M146.821 119.553L146.872 120.166L145.856 122.106L145.299 122.153L145.23 121.334L145.548 121.308L146.095 120.254L146.093 120.232L144.365 120.377L144.314 119.763L146.821 119.553ZM145.367 119.217L145.421 119.859L145.426 120.128L145.595 122.128L144.856 122.19L144.611 119.28L145.367 119.217Z" fill="#2A2A2A"/>
<path d="M143.944 119.336L143.992 119.905L142.981 120.894C142.915 120.96 142.858 121.021 142.811 121.077C142.763 121.134 142.728 121.192 142.705 121.25C142.681 121.309 142.672 121.372 142.678 121.44C142.685 121.515 142.706 121.577 142.743 121.628C142.778 121.678 142.825 121.715 142.884 121.739C142.942 121.764 143.008 121.773 143.081 121.767C143.154 121.761 143.217 121.741 143.27 121.707C143.323 121.673 143.362 121.626 143.387 121.566C143.413 121.507 143.422 121.437 143.415 121.355L144.166 121.292C144.183 121.497 144.152 121.677 144.072 121.832C143.993 121.988 143.873 122.112 143.712 122.206C143.551 122.3 143.357 122.356 143.132 122.375C142.899 122.394 142.694 122.374 142.517 122.313C142.339 122.254 142.198 122.161 142.094 122.034C141.989 121.908 141.929 121.754 141.914 121.573C141.904 121.461 141.918 121.348 141.955 121.233C141.992 121.12 142.066 120.991 142.175 120.847C142.284 120.704 142.441 120.53 142.648 120.327L142.901 120.076L142.9 120.059L141.763 120.155L141.71 119.524L143.944 119.336Z" fill="#2A2A2A"/>
<path d="M140.994 120.001L140.953 120.615L139.659 122.382L139.102 122.345L139.155 121.526L139.474 121.547L140.172 120.587L140.173 120.564L138.443 120.45L138.483 119.835L140.994 120.001ZM139.606 119.452L139.564 120.095L139.529 120.361L139.398 122.364L138.658 122.316L138.849 119.402L139.606 119.452Z" fill="#2A2A2A"/>
<path d="M138.181 119.358L138.144 119.927L136.998 120.755C136.922 120.81 136.856 120.862 136.802 120.911C136.746 120.96 136.702 121.012 136.671 121.066C136.639 121.12 136.621 121.182 136.616 121.25C136.611 121.325 136.623 121.39 136.652 121.445C136.68 121.5 136.721 121.544 136.775 121.576C136.829 121.609 136.892 121.628 136.966 121.633C137.039 121.638 137.104 121.627 137.162 121.602C137.219 121.576 137.264 121.535 137.299 121.481C137.333 121.426 137.352 121.357 137.358 121.276L138.109 121.325C138.096 121.53 138.038 121.704 137.936 121.845C137.835 121.987 137.697 122.093 137.524 122.161C137.351 122.23 137.151 122.257 136.925 122.242C136.692 122.226 136.492 122.176 136.327 122.09C136.16 122.004 136.034 121.891 135.95 121.75C135.865 121.61 135.829 121.449 135.84 121.267C135.848 121.156 135.878 121.046 135.932 120.938C135.986 120.831 136.077 120.714 136.207 120.589C136.336 120.463 136.518 120.315 136.752 120.144L137.04 119.935L137.041 119.918L135.903 119.843L135.944 119.211L138.181 119.358Z" fill="#2A2A2A"/>
<path d="M135.165 119.576L135.034 120.177L133.491 121.731L132.945 121.612L133.12 120.81L133.432 120.878L134.265 120.033L134.27 120.01L132.576 119.64L132.708 119.038L135.165 119.576ZM133.875 118.827L133.737 119.456L133.663 119.714L133.234 121.675L132.51 121.517L133.134 118.664L133.875 118.827Z" fill="#2A2A2A"/>
<path d="M132.48 118.522L132.358 119.079L131.101 119.726C131.018 119.769 130.945 119.811 130.884 119.851C130.822 119.892 130.771 119.937 130.732 119.985C130.692 120.034 130.665 120.092 130.65 120.159C130.634 120.232 130.636 120.298 130.657 120.357C130.676 120.416 130.71 120.465 130.759 120.505C130.807 120.546 130.867 120.574 130.939 120.589C131.01 120.605 131.076 120.605 131.138 120.588C131.198 120.571 131.249 120.538 131.291 120.488C131.333 120.439 131.362 120.375 131.38 120.295L132.115 120.456C132.071 120.656 131.989 120.819 131.867 120.944C131.745 121.069 131.593 121.153 131.412 121.195C131.231 121.237 131.029 121.234 130.808 121.186C130.58 121.136 130.39 121.056 130.239 120.946C130.086 120.837 129.979 120.706 129.917 120.554C129.854 120.402 129.842 120.238 129.881 120.06C129.905 119.951 129.951 119.847 130.02 119.748C130.089 119.65 130.197 119.549 130.344 119.444C130.491 119.339 130.692 119.219 130.949 119.086L131.266 118.921L131.269 118.905L130.155 118.661L130.29 118.043L132.48 118.522Z" fill="#2A2A2A"/>
<path d="M129.465 118.287L129.245 118.862L127.488 120.169L126.966 119.97L127.259 119.202L127.557 119.316L128.507 118.605L128.515 118.583L126.895 117.965L127.115 117.389L129.465 118.287ZM128.301 117.354L128.071 117.956L127.959 118.2L127.243 120.075L126.55 119.811L127.592 117.083L128.301 117.354Z" fill="#2A2A2A"/>
<path d="M126.967 116.845L126.763 117.377L125.424 117.83C125.335 117.86 125.257 117.891 125.191 117.921C125.123 117.952 125.066 117.989 125.02 118.032C124.974 118.074 124.938 118.127 124.914 118.191C124.887 118.261 124.879 118.327 124.89 118.388C124.901 118.449 124.927 118.503 124.969 118.549C125.011 118.597 125.066 118.634 125.134 118.66C125.203 118.686 125.269 118.695 125.331 118.688C125.393 118.68 125.449 118.655 125.498 118.612C125.546 118.57 125.585 118.51 125.615 118.434L126.318 118.703C126.245 118.895 126.139 119.043 125.999 119.149C125.86 119.254 125.698 119.315 125.512 119.329C125.327 119.344 125.128 119.31 124.917 119.23C124.698 119.146 124.522 119.039 124.389 118.908C124.255 118.777 124.168 118.632 124.13 118.473C124.09 118.313 124.102 118.149 124.167 117.979C124.207 117.874 124.269 117.778 124.352 117.691C124.435 117.605 124.557 117.52 124.717 117.438C124.878 117.356 125.095 117.268 125.369 117.174L125.706 117.059L125.713 117.043L124.647 116.636L124.873 116.045L126.967 116.845Z" fill="#2A2A2A"/>
<path d="M124.021 116.163L123.718 116.7L121.785 117.73L121.298 117.455L121.703 116.74L121.981 116.897L123.026 116.335L123.037 116.315L121.527 115.462L121.831 114.926L124.021 116.163ZM123.009 115.068L122.692 115.628L122.545 115.853L121.557 117.601L120.911 117.236L122.348 114.694L123.009 115.068Z" fill="#2A2A2A"/>
<path d="M121.766 114.365L121.485 114.861L120.093 115.11C120 115.126 119.919 115.145 119.849 115.165C119.777 115.186 119.715 115.214 119.664 115.249C119.611 115.284 119.568 115.331 119.534 115.39C119.497 115.456 119.48 115.519 119.482 115.582C119.483 115.643 119.501 115.701 119.536 115.753C119.57 115.806 119.619 115.851 119.683 115.887C119.747 115.923 119.81 115.942 119.873 115.944C119.936 115.945 119.995 115.929 120.049 115.894C120.104 115.859 120.151 115.806 120.191 115.735L120.847 116.106C120.746 116.284 120.619 116.416 120.465 116.499C120.312 116.583 120.142 116.618 119.957 116.605C119.771 116.592 119.579 116.529 119.382 116.418C119.179 116.303 119.021 116.171 118.909 116.021C118.796 115.872 118.732 115.716 118.717 115.552C118.702 115.389 118.738 115.228 118.828 115.07C118.883 114.972 118.958 114.886 119.054 114.812C119.148 114.739 119.281 114.674 119.452 114.617C119.624 114.56 119.852 114.505 120.136 114.453L120.487 114.389L120.496 114.374L119.502 113.813L119.814 113.262L121.766 114.365Z" fill="#2A2A2A"/>
<path d="M118.954 113.253L118.574 113.738L116.509 114.468L116.069 114.124L116.575 113.477L116.827 113.674L117.945 113.274L117.959 113.256L116.593 112.187L116.973 111.702L118.954 113.253ZM118.116 112.018L117.719 112.526L117.54 112.726L116.303 114.307L115.719 113.85L117.519 111.551L118.116 112.018Z" fill="#2A2A2A"/>
<path d="M116.992 111.138L116.64 111.587L115.227 111.625C115.133 111.628 115.05 111.634 114.977 111.644C114.903 111.653 114.838 111.672 114.782 111.699C114.725 111.726 114.675 111.766 114.633 111.82C114.587 111.879 114.56 111.939 114.552 112.001C114.544 112.062 114.553 112.121 114.58 112.178C114.606 112.236 114.648 112.288 114.706 112.333C114.763 112.378 114.823 112.406 114.886 112.417C114.947 112.428 115.007 112.421 115.067 112.394C115.126 112.368 115.18 112.323 115.231 112.259L115.824 112.723C115.697 112.884 115.552 112.995 115.388 113.055C115.224 113.115 115.051 113.124 114.869 113.084C114.687 113.043 114.508 112.953 114.329 112.813C114.145 112.669 114.009 112.515 113.92 112.35C113.831 112.186 113.791 112.022 113.8 111.858C113.809 111.694 113.87 111.54 113.982 111.397C114.051 111.309 114.138 111.235 114.243 111.177C114.348 111.118 114.489 111.074 114.667 111.043C114.845 111.012 115.078 110.992 115.368 110.983L115.724 110.972L115.735 110.958L114.836 110.255L115.226 109.757L116.992 111.138Z" fill="#2A2A2A"/>
<path d="M114.377 109.619L113.93 110.042L111.779 110.457L111.395 110.051L111.992 109.487L112.212 109.719L113.376 109.49L113.393 109.474L112.202 108.214L112.649 107.791L114.377 109.619ZM113.733 108.274L113.265 108.716L113.058 108.888L111.599 110.267L111.089 109.728L113.212 107.723L113.733 108.274Z" fill="#2A2A2A"/>
<path d="M112.753 107.236L112.338 107.628L110.935 107.455C110.841 107.444 110.758 107.437 110.685 107.436C110.61 107.434 110.543 107.443 110.483 107.461C110.423 107.479 110.368 107.512 110.318 107.559C110.264 107.61 110.228 107.666 110.212 107.726C110.194 107.785 110.195 107.845 110.213 107.906C110.23 107.967 110.263 108.024 110.314 108.077C110.364 108.13 110.419 108.167 110.479 108.187C110.538 108.207 110.599 108.209 110.662 108.192C110.724 108.175 110.785 108.138 110.844 108.082L111.361 108.629C111.212 108.77 111.052 108.858 110.881 108.893C110.71 108.927 110.537 108.911 110.364 108.844C110.19 108.776 110.025 108.66 109.87 108.496C109.709 108.326 109.598 108.153 109.535 107.977C109.47 107.801 109.455 107.633 109.489 107.473C109.523 107.312 109.606 107.169 109.738 107.044C109.819 106.967 109.916 106.907 110.029 106.865C110.141 106.823 110.288 106.8 110.468 106.795C110.648 106.791 110.882 106.806 111.17 106.841L111.524 106.883L111.536 106.871L110.753 106.042L111.213 105.607L112.753 107.236Z" fill="#2A2A2A"/>
<path d="M110.394 105.345L109.888 105.696L107.699 105.786L107.38 105.327L108.055 104.859L108.237 105.121L109.423 105.068L109.442 105.055L108.452 103.631L108.958 103.28L110.394 105.345ZM109.958 103.918L109.428 104.286L109.198 104.425L107.55 105.571L107.126 104.962L109.525 103.296L109.958 103.918Z" fill="#2A2A2A"/>
<path d="M109.143 102.746L108.674 103.072L107.312 102.692C107.222 102.667 107.14 102.648 107.068 102.636C106.994 102.623 106.927 102.622 106.865 102.631C106.803 102.64 106.743 102.663 106.687 102.702C106.626 102.745 106.582 102.795 106.557 102.852C106.531 102.908 106.522 102.967 106.531 103.03C106.539 103.093 106.564 103.154 106.605 103.214C106.647 103.274 106.696 103.319 106.752 103.348C106.808 103.377 106.868 103.387 106.932 103.379C106.996 103.372 107.062 103.345 107.129 103.298L107.559 103.916C107.39 104.033 107.219 104.096 107.045 104.105C106.87 104.114 106.702 104.072 106.54 103.98C106.379 103.887 106.233 103.748 106.104 103.562C105.971 103.37 105.886 103.183 105.85 102.999C105.813 102.816 105.823 102.647 105.88 102.494C105.938 102.34 106.041 102.211 106.19 102.107C106.282 102.043 106.387 101.998 106.505 101.973C106.622 101.948 106.77 101.947 106.949 101.97C107.128 101.993 107.357 102.042 107.636 102.119L107.98 102.214L107.994 102.204L107.343 101.268L107.863 100.906L109.143 102.746Z" fill="#2A2A2A"/>
<path d="M107.092 100.525L106.539 100.797L104.362 100.56L104.115 100.058L104.852 99.6955L104.993 99.9819L106.173 100.106L106.194 100.096L105.427 98.541L105.98 98.2687L107.092 100.525ZM106.873 99.0492L106.295 99.334L106.047 99.4372L104.246 100.324L103.918 99.6595L106.538 98.3689L106.873 99.0492Z" fill="#2A2A2A"/>
<path d="M106.242 97.7688L105.73 98.0209L104.44 97.4421C104.355 97.4038 104.277 97.3732 104.207 97.3502C104.136 97.3269 104.07 97.3152 104.007 97.3153C103.944 97.3145 103.882 97.3292 103.821 97.3595C103.753 97.3927 103.703 97.4355 103.669 97.488C103.636 97.5397 103.618 97.597 103.617 97.6599C103.616 97.7232 103.631 97.7877 103.664 97.8533C103.696 97.919 103.738 97.9704 103.789 98.0077C103.84 98.0441 103.897 98.0634 103.962 98.0654C104.027 98.0675 104.096 98.0505 104.169 98.0144L104.502 98.6896C104.318 98.7803 104.139 98.8171 103.965 98.8C103.791 98.7828 103.631 98.7164 103.485 98.6008C103.339 98.4852 103.216 98.3259 103.116 98.123C103.013 97.9133 102.957 97.7151 102.948 97.5285C102.939 97.3414 102.974 97.1763 103.054 97.0331C103.133 96.889 103.255 96.7768 103.418 96.6966C103.518 96.647 103.629 96.6186 103.749 96.6112C103.869 96.6042 104.015 96.6253 104.189 96.6743C104.362 96.7233 104.582 96.8066 104.846 96.9242L105.172 97.0689L105.187 97.0613L104.683 96.0383L105.251 95.7585L106.242 97.7688Z" fill="#2A2A2A"/>
<path d="M104.546 95.2663L103.959 95.4531L101.841 94.8943L101.671 94.3618L102.454 94.1127L102.551 94.417L103.7 94.7156L103.721 94.7087L103.195 93.0568L103.782 92.8699L104.546 95.2663ZM104.549 93.7748L103.935 93.9703L103.675 94.0353L101.761 94.6444L101.536 93.938L104.319 93.0521L104.549 93.7748Z" fill="#2A2A2A"/>
<path d="M104.116 92.4147L103.573 92.5877L102.383 91.8232C102.304 91.7725 102.232 91.7307 102.166 91.6976C102.1 91.664 102.036 91.6425 101.974 91.6333C101.912 91.6231 101.848 91.6284 101.783 91.6492C101.711 91.672 101.655 91.7068 101.614 91.7538C101.573 91.7998 101.547 91.8539 101.537 91.9159C101.526 91.9783 101.532 92.0444 101.554 92.1141C101.576 92.1838 101.61 92.2409 101.655 92.2854C101.7 92.329 101.754 92.3567 101.817 92.3683C101.881 92.38 101.952 92.3735 102.03 92.3487L102.258 93.0659C102.062 93.1282 101.88 93.1379 101.711 93.0951C101.541 93.0522 101.393 92.9627 101.266 92.8267C101.139 92.6906 101.041 92.5148 100.972 92.2992C100.901 92.0764 100.875 91.8722 100.895 91.6864C100.914 91.4999 100.973 91.3419 101.073 91.2122C101.173 91.0816 101.31 90.9887 101.483 90.9337C101.59 90.8996 101.703 90.8879 101.824 90.8986C101.943 90.9095 102.085 90.9522 102.249 91.0265C102.413 91.1009 102.618 91.2159 102.862 91.3716L103.162 91.5632L103.179 91.558L102.832 90.4712L103.436 90.2792L104.116 92.4147Z" fill="#2A2A2A"/>
<path d="M102.812 89.6874L102.203 89.7847L100.193 88.9166L100.104 88.3648L100.915 88.235L100.966 88.5504L102.057 89.0168L102.08 89.0132L101.806 87.3014L102.414 87.2041L102.812 89.6874ZM103.038 88.2132L102.401 88.315L102.134 88.3404L100.151 88.6576L100.034 87.9256L102.918 87.4643L103.038 88.2132Z" fill="#2A2A2A"/>
<path d="M102.812 86.8037L102.249 86.8938L101.187 85.9606C101.116 85.8987 101.051 85.8466 100.991 85.8042C100.93 85.761 100.87 85.7302 100.81 85.7118C100.75 85.6925 100.687 85.6883 100.619 85.6991C100.545 85.711 100.484 85.7371 100.437 85.7774C100.389 85.8168 100.356 85.8664 100.336 85.9263C100.316 85.9863 100.312 86.0524 100.323 86.1247C100.335 86.197 100.36 86.2585 100.398 86.3092C100.435 86.3589 100.485 86.3944 100.546 86.4154C100.607 86.4364 100.678 86.4404 100.759 86.4275L100.878 87.1708C100.675 87.2033 100.493 87.1857 100.332 87.1181C100.171 87.0505 100.038 86.9399 99.9324 86.7864C99.8269 86.6329 99.7563 86.4445 99.7205 86.2211C99.6836 85.9902 99.6886 85.7844 99.7358 85.6036C99.7818 85.422 99.8641 85.2746 99.9827 85.1613C100.101 85.0471 100.25 84.9756 100.429 84.9469C100.54 84.9292 100.654 84.9346 100.771 84.963C100.888 84.9915 101.021 85.0548 101.173 85.1528C101.324 85.2509 101.509 85.395 101.727 85.5854L101.996 85.8196L102.013 85.8169L101.833 84.6907L102.458 84.5907L102.812 86.8037Z" fill="#2A2A2A"/>
<path d="M101.929 83.9125L101.313 83.9181L99.454 82.7601L99.4489 82.2013L100.27 82.1939L100.273 82.5132L101.283 83.1371L101.306 83.1369L101.29 81.4034L101.906 81.3978L101.929 83.9125ZM102.372 82.4885L101.728 82.4943L101.46 82.4797L99.4516 82.4978L99.4448 81.7565L102.366 81.7301L102.372 82.4885Z" fill="#2A2A2A"/>
<path d="M102.359 81.0611L101.789 81.0663L100.878 79.9853C100.817 79.9136 100.761 79.8523 100.708 79.8015C100.654 79.7497 100.599 79.7103 100.543 79.6832C100.486 79.6552 100.424 79.6415 100.355 79.6422C100.28 79.6428 100.216 79.6596 100.163 79.6924C100.11 79.7242 100.07 79.7683 100.042 79.8246C100.013 79.881 99.9988 79.9457 99.9995 80.0189C100 80.0921 100.016 80.1566 100.045 80.2124C100.075 80.2672 100.119 80.3096 100.176 80.3395C100.234 80.3694 100.303 80.384 100.385 80.3833L100.392 81.136C100.187 81.1378 100.009 81.0933 99.8601 81.0025C99.711 80.9116 99.5957 80.7825 99.5143 80.615C99.4329 80.4475 99.3912 80.2506 99.3891 80.0244C99.387 79.7906 99.4227 79.5879 99.4963 79.4161C99.5688 79.2434 99.6722 79.1099 99.8064 79.0155C99.9405 78.9202 100.098 78.8717 100.28 78.8701C100.392 78.8691 100.504 78.8914 100.616 78.9369C100.726 78.9825 100.849 79.065 100.985 79.1845C101.12 79.304 101.281 79.4741 101.468 79.6948L101.699 79.9665L101.716 79.9663L101.706 78.8258L102.339 78.8201L102.359 81.0611Z" fill="#2A2A2A"/>
<path d="M101.917 78.0707L101.307 77.9844L99.6416 76.5625L99.7199 76.0091L100.533 76.1241L100.489 76.4403L101.394 77.2077L101.417 77.2109L101.659 75.4944L102.269 75.5806L101.917 78.0707ZM102.568 76.7287L101.93 76.6384L101.667 76.5839L99.6783 76.3027L99.7822 75.5687L102.674 75.9777L102.568 76.7287Z" fill="#2A2A2A"/>
<path d="M102.768 75.3153L102.203 75.2354L101.463 74.0307C101.414 73.9508 101.367 73.8818 101.323 73.8237C101.277 73.7645 101.229 73.7173 101.177 73.6821C101.125 73.6461 101.066 73.6232 100.998 73.6136C100.924 73.6031 100.858 73.6101 100.8 73.6347C100.743 73.6583 100.697 73.6958 100.661 73.7474C100.624 73.7988 100.6 73.8607 100.59 73.9331C100.579 74.0056 100.585 74.0717 100.606 74.1313C100.628 74.19 100.665 74.2384 100.717 74.2765C100.769 74.3146 100.836 74.3394 100.917 74.3509L100.811 75.0962C100.608 75.0674 100.439 74.997 100.305 74.885C100.171 74.7729 100.077 74.628 100.021 74.4503C99.9656 74.2725 99.9537 74.0716 99.9853 73.8477C100.018 73.6162 100.084 73.421 100.182 73.2621C100.28 73.1022 100.402 72.9855 100.548 72.9122C100.695 72.8379 100.859 72.8135 101.038 72.839C101.149 72.8547 101.257 72.8934 101.36 72.9551C101.463 73.0166 101.572 73.1165 101.688 73.2548C101.804 73.3931 101.938 73.5853 102.091 73.8315L102.278 74.1345L102.295 74.1369L102.455 73.0076L103.082 73.0963L102.768 75.3153Z" fill="#2A2A2A"/>
<path d="M102.776 72.2924L102.186 72.1162L100.751 70.462L100.911 69.9265L101.698 70.1614L101.607 70.4674L102.388 71.3611L102.41 71.3676L102.906 69.7065L103.496 69.8827L102.776 72.2924ZM103.62 71.0623L103.002 70.878L102.75 70.7849L100.826 70.2106L101.038 69.5003L103.837 70.3356L103.62 71.0623Z" fill="#2A2A2A"/>
<path d="M104.029 69.6946L103.482 69.5314L102.93 68.23C102.893 68.1436 102.857 68.0684 102.822 68.0043C102.786 67.9389 102.745 67.8851 102.699 67.8426C102.653 67.7992 102.598 67.7678 102.532 67.7482C102.46 67.7267 102.394 67.7238 102.334 67.7396C102.274 67.7544 102.222 67.7846 102.179 67.8302C102.134 67.8755 102.102 67.9332 102.081 68.0033C102.06 68.0734 102.055 68.1396 102.068 68.2017C102.08 68.263 102.109 68.3163 102.155 68.3618C102.201 68.4073 102.263 68.4417 102.342 68.4651L102.126 69.1863C101.93 69.1276 101.773 69.0329 101.658 68.9021C101.542 68.7714 101.47 68.614 101.441 68.4299C101.413 68.2459 101.431 68.0455 101.496 67.8288C101.563 67.6047 101.657 67.4215 101.778 67.279C101.898 67.1354 102.036 67.0383 102.192 66.9876C102.348 66.9361 102.514 66.9363 102.688 66.9882C102.795 67.0203 102.895 67.0746 102.989 67.151C103.081 67.2272 103.174 67.3422 103.268 67.4962C103.362 67.6502 103.466 67.8603 103.58 68.1264L103.72 68.454L103.737 68.4589L104.063 67.366L104.67 67.5471L104.029 69.6946Z" fill="#2A2A2A"/>
<path d="M104.488 66.7067L103.93 66.4445L102.758 64.595L102.996 64.0893L103.739 64.4389L103.603 64.7279L104.242 65.7279L104.263 65.7376L105.001 64.1689L105.559 64.4311L104.488 66.7067ZM105.505 65.6161L104.922 65.3417L104.687 65.2122L102.87 64.3576L103.185 63.6868L105.828 64.9298L105.505 65.6161Z" fill="#2A2A2A"/>
<path d="M106.113 64.3244L105.597 64.0817L105.245 62.7125C105.222 62.6217 105.197 62.5419 105.172 62.4732C105.146 62.4033 105.113 62.3439 105.074 62.2951C105.036 62.2454 104.985 62.206 104.924 62.1769C104.856 62.1449 104.791 62.1322 104.729 62.1388C104.667 62.1445 104.611 62.1667 104.562 62.2053C104.511 62.2435 104.47 62.2957 104.439 62.3619C104.408 62.4281 104.394 62.4929 104.397 62.5562C104.4 62.6186 104.421 62.6757 104.459 62.7275C104.498 62.7793 104.554 62.8226 104.628 62.8574L104.308 63.5385C104.122 63.4511 103.982 63.3341 103.887 63.1876C103.792 63.0411 103.744 62.8747 103.743 62.6885C103.743 62.5023 103.791 62.3068 103.887 62.1022C103.986 61.8906 104.107 61.7234 104.247 61.6006C104.388 61.4764 104.539 61.401 104.701 61.3742C104.863 61.3465 105.026 61.3713 105.191 61.4485C105.292 61.4963 105.383 61.5649 105.464 61.6544C105.544 61.7435 105.619 61.8711 105.689 62.0374C105.759 62.2037 105.83 62.4269 105.903 62.707L105.993 63.0518L106.009 63.0591L106.494 62.0271L107.067 62.2965L106.113 64.3244Z" fill="#2A2A2A"/>
<path d="M107.013 61.4384L106.5 61.0961L105.617 59.0926L105.928 58.628L106.611 59.0844L106.433 59.3499L106.916 60.4339L106.935 60.4466L107.899 59.0055L108.411 59.3478L107.013 61.4384ZM108.182 60.5116L107.646 60.1534L107.432 59.9902L105.763 58.8745L106.175 58.2582L108.603 59.8811L108.182 60.5116Z" fill="#2A2A2A"/>
<path d="M108.975 59.3249L108.501 59.008L108.357 57.6017C108.348 57.5084 108.335 57.4259 108.32 57.3541C108.305 57.2811 108.282 57.2175 108.251 57.1635C108.22 57.1086 108.176 57.0621 108.119 57.0241C108.057 56.9824 107.994 56.9601 107.932 56.9574C107.87 56.9539 107.812 56.9675 107.757 56.9983C107.701 57.0286 107.653 57.0741 107.613 57.1349C107.572 57.1958 107.548 57.2577 107.541 57.3207C107.535 57.3829 107.548 57.4425 107.578 57.4994C107.609 57.5564 107.658 57.6076 107.726 57.6531L107.307 58.2788C107.137 58.1647 107.015 58.0281 106.943 57.8691C106.871 57.71 106.849 57.5384 106.876 57.3542C106.903 57.17 106.979 56.9838 107.105 56.7958C107.235 56.6014 107.379 56.454 107.536 56.3535C107.694 56.2517 107.854 56.1996 108.018 56.1972C108.183 56.194 108.341 56.2428 108.492 56.3437C108.585 56.4061 108.665 56.4875 108.731 56.588C108.797 56.688 108.852 56.8254 108.897 57.0002C108.941 57.1751 108.978 57.4064 109.009 57.6943L109.046 58.0487L109.061 58.0582L109.695 57.11L110.221 57.4619L108.975 59.3249Z" fill="#2A2A2A"/>
<path d="M110.295 56.6052L109.839 56.1904L109.265 54.0776L109.641 53.6645L110.248 54.2176L110.033 54.4536L110.349 55.5975L110.366 55.6129L111.534 54.3314L111.989 54.7462L110.295 56.6052ZM111.589 55.8628L111.112 55.4288L110.926 55.2357L109.441 53.8837L109.941 53.3357L112.1 55.3022L111.589 55.8628Z" fill="#2A2A2A"/>
<path d="M112.551 54.8077L112.129 54.4236L112.196 53.0117C112.201 52.9179 112.201 52.8345 112.197 52.7614C112.193 52.6869 112.179 52.6206 112.156 52.5624C112.134 52.5036 112.098 52.4511 112.047 52.405C111.992 52.3545 111.933 52.3232 111.872 52.3112C111.812 52.2986 111.752 52.3034 111.693 52.3256C111.633 52.3472 111.579 52.3851 111.53 52.4392C111.48 52.4933 111.448 52.5509 111.432 52.6122C111.416 52.6728 111.42 52.7336 111.441 52.7945C111.463 52.8553 111.504 52.9133 111.564 52.9684L111.057 53.5248C110.906 53.3865 110.806 53.2334 110.758 53.0654C110.711 52.8974 110.714 52.7243 110.768 52.5462C110.823 52.3681 110.926 52.1954 111.079 52.0282C111.236 51.8554 111.4 51.731 111.571 51.6551C111.742 51.5779 111.908 51.5503 112.071 51.5724C112.234 51.5937 112.383 51.6655 112.517 51.7878C112.6 51.8633 112.667 51.9557 112.718 52.065C112.768 52.1737 112.802 52.3178 112.82 52.4973C112.837 52.6768 112.84 52.9111 112.827 53.2003L112.811 53.5563L112.824 53.5678L113.592 52.7248L114.061 53.1511L112.551 54.8077Z" fill="#2A2A2A"/>
<path d="M114.261 52.3149L113.873 51.8369L113.619 49.6622L114.053 49.3098L114.571 49.9471L114.323 50.1485L114.465 51.3266L114.479 51.3443L115.825 50.2512L116.214 50.7292L114.261 52.3149ZM115.651 51.7737L115.245 51.2735L115.089 51.0547L113.823 49.4967L114.398 49.0293L116.24 51.2955L115.651 51.7737Z" fill="#2A2A2A"/>
<path d="M116.76 50.8736L116.4 50.431L116.677 49.0449C116.696 48.9529 116.708 48.8704 116.715 48.7975C116.722 48.7232 116.719 48.6556 116.705 48.5947C116.691 48.5332 116.663 48.4759 116.62 48.4228C116.573 48.3645 116.52 48.3249 116.461 48.304C116.403 48.2824 116.343 48.2783 116.282 48.2915C116.22 48.304 116.16 48.3333 116.103 48.3795C116.047 48.4256 116.006 48.4778 115.981 48.536C115.956 48.5937 115.951 48.6542 115.963 48.7176C115.975 48.7811 116.007 48.8445 116.059 48.9079L115.474 49.3826C115.345 49.2232 115.269 49.057 115.247 48.8838C115.225 48.7106 115.254 48.5399 115.335 48.3719C115.415 48.2038 115.543 48.0485 115.718 47.9059C115.9 47.7585 116.081 47.6599 116.261 47.6104C116.441 47.5594 116.61 47.557 116.768 47.603C116.926 47.6484 117.062 47.7416 117.177 47.8825C117.247 47.9695 117.3 48.0709 117.334 48.1865C117.367 48.3015 117.379 48.449 117.37 48.6291C117.361 48.8093 117.329 49.0414 117.273 49.3254L117.204 49.6751L117.215 49.6884L118.1 48.9692L118.5 49.4605L116.76 50.8736Z" fill="#2A2A2A"/>
<path d="M118.823 48.6636L118.51 48.133L118.584 45.9448L119.065 45.661L119.482 46.3684L119.207 46.5306L119.172 47.7166L119.183 47.7363L120.677 46.8559L120.99 47.3865L118.823 48.6636ZM120.278 48.3355L119.951 47.7804L119.829 47.5408L118.81 45.8116L119.448 45.4351L120.932 47.9504L120.278 48.3355Z" fill="#2A2A2A"/>
<path d="M121.508 47.6106L121.219 47.1194L121.699 45.7901C121.731 45.7018 121.756 45.6221 121.774 45.551C121.792 45.4786 121.798 45.4113 121.794 45.349C121.79 45.2862 121.77 45.2253 121.736 45.1664C121.697 45.1017 121.651 45.0546 121.596 45.0252C121.542 44.9953 121.484 44.9823 121.421 44.9862C121.357 44.9893 121.294 45.0094 121.231 45.0466C121.168 45.0837 121.12 45.1292 121.087 45.1831C121.054 45.2365 121.039 45.2955 121.042 45.36C121.045 45.4246 121.067 45.4921 121.108 45.5625L120.46 45.9448C120.355 45.7679 120.305 45.5922 120.309 45.4177C120.314 45.2431 120.368 45.0787 120.472 44.9245C120.577 44.7703 120.726 44.6358 120.921 44.5209C121.123 44.4022 121.316 44.3317 121.502 44.3095C121.688 44.286 121.855 44.3088 122.004 44.3777C122.154 44.4462 122.274 44.5586 122.367 44.715C122.424 44.8116 122.46 44.9197 122.477 45.0391C122.493 45.1577 122.483 45.3054 122.447 45.4822C122.411 45.6589 122.344 45.8836 122.247 46.1562L122.127 46.4917L122.135 46.5064L123.118 45.9272L123.44 46.4725L121.508 47.6106Z" fill="#2A2A2A"/>
<path d="M123.878 45.7327L123.648 45.1614L124.047 43.0086L124.565 42.7998L124.872 43.5614L124.576 43.6808L124.364 44.8483L124.373 44.8694L125.981 44.2215L126.211 44.7927L123.878 45.7327ZM125.366 45.6251L125.125 45.0274L125.041 44.7724L124.29 42.9106L124.978 42.6335L126.07 45.3416L125.366 45.6251Z" fill="#2A2A2A"/>
<path d="M126.691 45.0916L126.477 44.5627L127.151 43.3199C127.196 43.2373 127.232 43.1622 127.26 43.0946C127.289 43.0257 127.305 42.96 127.31 42.8977C127.315 42.8351 127.305 42.772 127.28 42.7085C127.252 42.6389 127.213 42.5854 127.163 42.5481C127.114 42.5105 127.058 42.4889 126.995 42.4834C126.932 42.4771 126.867 42.4875 126.799 42.5149C126.731 42.5422 126.676 42.5801 126.635 42.6284C126.595 42.6763 126.572 42.7324 126.565 42.7966C126.558 42.8609 126.57 42.9309 126.6 43.0068L125.902 43.2881C125.825 43.0977 125.802 42.9165 125.832 42.7445C125.862 42.5725 125.94 42.4181 126.066 42.2811C126.193 42.1442 126.361 42.0335 126.571 41.9489C126.788 41.8616 126.989 41.8207 127.176 41.8264C127.364 41.8309 127.526 41.8783 127.663 41.9687C127.8 42.0587 127.903 42.1879 127.971 42.3562C128.013 42.4603 128.033 42.5726 128.031 42.6931C128.03 42.8128 127.998 42.9573 127.936 43.1267C127.874 43.2961 127.774 43.5084 127.637 43.7634L127.469 44.0773L127.475 44.0931L128.533 43.6668L128.77 44.254L126.691 45.0916Z" fill="#2A2A2A"/>
<path d="M129.314 43.5877L129.171 42.9885L129.887 40.9192L130.431 40.7899L130.621 41.5888L130.31 41.6627L129.926 42.7856L129.931 42.8078L131.619 42.4067L131.761 43.0059L129.314 43.5877ZM130.801 43.703L130.652 43.0761L130.607 42.8114L130.142 40.8585L130.863 40.687L131.539 43.5275L130.801 43.703Z" fill="#2A2A2A"/>
<path d="M132.19 43.3728L132.058 42.818L132.91 41.6894C132.966 41.6145 133.013 41.5456 133.051 41.4829C133.09 41.419 133.116 41.3566 133.13 41.2957C133.145 41.2346 133.144 41.1707 133.128 41.1041C133.111 41.0311 133.08 40.9724 133.037 40.9281C132.994 40.8836 132.942 40.8539 132.881 40.8392C132.819 40.8235 132.753 40.8241 132.682 40.841C132.61 40.8579 132.551 40.8872 132.503 40.9289C132.456 40.9703 132.425 41.0222 132.408 41.0848C132.392 41.1473 132.393 41.2183 132.412 41.2978L131.68 41.472C131.632 41.2722 131.636 41.0896 131.691 40.924C131.747 40.7584 131.847 40.6174 131.992 40.5008C132.138 40.3842 132.32 40.2997 132.54 40.2474C132.768 40.1933 132.974 40.183 133.158 40.2165C133.342 40.2488 133.495 40.3198 133.617 40.4296C133.74 40.5391 133.822 40.6822 133.864 40.8588C133.89 40.9679 133.894 41.0819 133.874 41.2009C133.854 41.3189 133.801 41.4571 133.715 41.6154C133.628 41.7737 133.498 41.9687 133.325 42.2005L133.111 42.4857L133.115 42.5024L134.225 42.2385L134.372 42.8543L132.19 43.3728Z" fill="#2A2A2A"/>
<path d="M135.009 42.2765L134.957 41.6628L135.973 39.7232L136.53 39.6764L136.599 40.4947L136.281 40.5215L135.734 41.5746L135.736 41.5973L137.464 41.4521L137.515 42.0658L135.009 42.2765ZM136.462 42.6122L136.408 41.97L136.403 41.7015L136.235 39.7013L136.974 39.6392L137.218 42.5486L136.462 42.6122Z" fill="#2A2A2A"/>
<path d="M137.885 42.4926L137.837 41.9243L138.848 40.9353C138.915 40.8695 138.971 40.8085 139.018 40.7521C139.066 40.6947 139.101 40.6369 139.124 40.5787C139.148 40.5204 139.157 40.4572 139.151 40.389C139.145 40.3142 139.123 40.2516 139.086 40.2013C139.051 40.1509 139.004 40.1138 138.945 40.0901C138.887 40.0654 138.821 40.0562 138.748 40.0623C138.675 40.0684 138.612 40.0885 138.559 40.1226C138.506 40.1566 138.467 40.2032 138.442 40.2626C138.416 40.322 138.407 40.3924 138.414 40.4738L137.663 40.5369C137.646 40.3323 137.677 40.1523 137.757 39.9968C137.836 39.8414 137.956 39.7168 138.118 39.6232C138.279 39.5295 138.472 39.4732 138.697 39.4543C138.93 39.4347 139.135 39.4551 139.312 39.5156C139.49 39.5751 139.631 39.6682 139.735 39.7949C139.84 39.9215 139.9 40.0752 139.915 40.2561C139.925 40.3679 139.911 40.4811 139.874 40.5958C139.837 40.7096 139.764 40.8383 139.654 40.9819C139.545 41.1256 139.388 41.2991 139.182 41.5024L138.928 41.7526L138.929 41.7696L140.066 41.6741L140.119 42.3049L137.885 42.4926Z" fill="#2A2A2A"/>
<path d="M140.835 41.8284L140.876 41.2139L142.17 39.4474L142.728 39.4841L142.674 40.3035L142.355 40.2825L141.657 41.2424L141.656 41.2652L143.386 41.3791L143.346 41.9936L140.835 41.8284ZM142.223 42.3769L142.265 41.7339L142.3 41.4676L142.432 39.4646L143.172 39.5133L142.98 42.4267L142.223 42.3769Z" fill="#2A2A2A"/>
<path d="M143.648 42.4707L143.685 41.9017L144.832 41.0741C144.908 41.0191 144.973 40.9672 145.028 40.9185C145.083 40.8688 145.127 40.8169 145.158 40.7627C145.19 40.7087 145.208 40.6475 145.213 40.5792C145.218 40.5043 145.206 40.4392 145.177 40.384C145.149 40.3288 145.108 40.2851 145.054 40.253C145 40.2199 144.937 40.201 144.864 40.1962C144.791 40.1914 144.725 40.2018 144.667 40.2275C144.61 40.2533 144.565 40.2936 144.531 40.3485C144.496 40.4035 144.477 40.4717 144.471 40.5532L143.72 40.5038C143.733 40.2989 143.791 40.1256 143.893 39.9837C143.995 39.8418 144.132 39.7365 144.305 39.6679C144.478 39.5993 144.678 39.5724 144.904 39.5873C145.137 39.6027 145.337 39.6534 145.502 39.7396C145.669 39.8249 145.795 39.9379 145.879 40.0787C145.964 40.2195 146.001 40.3805 145.989 40.5617C145.981 40.6736 145.951 40.7835 145.897 40.8914C145.843 40.9983 145.752 41.1147 145.622 41.2405C145.493 41.3663 145.311 41.5143 145.077 41.6847L144.789 41.8943L144.788 41.9114L145.926 41.9863L145.885 42.6179L143.648 42.4707Z" fill="#2A2A2A"/>
<path d="M119.053 62.011C120.715 62.9709 122.819 62.4452 124.079 60.9962C131.926 51.9672 145.313 49.4595 156.06 55.6645C166.662 61.7856 171.206 74.3703 167.588 85.5672C166.913 87.6534 167.59 90.0338 169.488 91.13V91.13C171.468 92.2728 172.146 94.8037 171.003 96.783L166.322 104.89C162.594 111.347 154.338 113.56 147.881 109.832L114.106 90.3318C107.649 86.6039 105.437 78.3474 109.165 71.8905L114.103 63.3374C115.103 61.6042 117.32 61.0104 119.053 62.011V62.011Z" fill="#2A2A2A"/>
<g clip-path="url(#paint1_diamond_1_2_clip_path)" data-figma-skip-parse="true"><g transform="matrix(-0.0744145 -0.0789145 0.0789145 -0.0744145 128.415 160.415)"><rect x="0" y="0" width="1381.46" height="1381.46" fill="url(#paint1_diamond_1_2)" opacity="1" shape-rendering="crispEdges"/><rect x="0" y="0" width="1381.46" height="1381.46" transform="scale(1 -1)" fill="url(#paint1_diamond_1_2)" opacity="1" shape-rendering="crispEdges"/><rect x="0" y="0" width="1381.46" height="1381.46" transform="scale(-1 1)" fill="url(#paint1_diamond_1_2)" opacity="1" shape-rendering="crispEdges"/><rect x="0" y="0" width="1381.46" height="1381.46" transform="scale(-1)" fill="url(#paint1_diamond_1_2)" opacity="1" shape-rendering="crispEdges"/></g></g><path d="M116.29 85.4146C121.679 76.0812 135.15 76.0812 140.539 85.4146L199.429 187.415C204.817 196.748 198.081 208.415 187.304 208.415H69.5248C58.7476 208.415 52.0119 196.748 57.4005 187.415L116.29 85.4146Z" data-figma-gradient-fill="{&#34;type&#34;:&#34;GRADIENT_DIAMOND&#34;,&#34;stops&#34;:[{&#34;color&#34;:{&#34;r&#34;:0.52156865596771240,&#34;g&#34;:0.51764708757400513,&#34;b&#34;:0.79215687513351440,&#34;a&#34;:1.0},&#34;position&#34;:0.0},{&#34;color&#34;:{&#34;r&#34;:0.92941176891326904,&#34;g&#34;:0.86274510622024536,&#34;b&#34;:0.98823529481887817,&#34;a&#34;:0.56000000238418579},&#34;position&#34;:1.0}],&#34;stopsVar&#34;:[{&#34;color&#34;:{&#34;r&#34;:0.52156865596771240,&#34;g&#34;:0.51764708757400513,&#34;b&#34;:0.79215687513351440,&#34;a&#34;:1.0},&#34;position&#34;:0.0},{&#34;color&#34;:{&#34;r&#34;:0.92941176891326904,&#34;g&#34;:0.86274510622024536,&#34;b&#34;:0.98823529481887817,&#34;a&#34;:0.56000000238418579},&#34;position&#34;:1.0}],&#34;transform&#34;:{&#34;m00&#34;:-148.82908630371094,&#34;m01&#34;:157.82910156250,&#34;m02&#34;:123.91453552246094,&#34;m10&#34;:-157.82910156250,&#34;m11&#34;:-148.82908630371094,&#34;m12&#34;:313.743652343750},&#34;opacity&#34;:1.0,&#34;blendMode&#34;:&#34;NORMAL&#34;,&#34;visible&#34;:true}" stroke="#2A2A2A" stroke-width="10"/>
<rect x="50.4145" y="116.415" width="155" height="34" rx="12" fill="#2A2A2A"/>
<path d="M63.602 141.415H58.9145L64.1958 125.415H70.1333L75.4145 141.415H70.727L67.227 129.821H67.102L63.602 141.415ZM62.727 135.102H71.5395V138.352H62.727V135.102ZM76.9556 141.415V125.415H83.8618C85.0493 125.415 86.0884 125.631 86.979 126.063C87.8696 126.495 88.5623 127.118 89.0571 127.93C89.5519 128.743 89.7993 129.717 89.7993 130.852C89.7993 131.998 89.5441 132.964 89.0337 133.75C88.5285 134.537 87.8175 135.131 86.9009 135.532C85.9894 135.933 84.9243 136.133 83.7056 136.133H79.5806V132.758H82.8306C83.341 132.758 83.7759 132.696 84.1352 132.571C84.4998 132.441 84.7785 132.235 84.9712 131.954C85.1691 131.672 85.2681 131.305 85.2681 130.852C85.2681 130.394 85.1691 130.021 84.9712 129.735C84.7785 129.443 84.4998 129.23 84.1352 129.094C83.7759 128.954 83.341 128.883 82.8306 128.883H81.2993V141.415H76.9556ZM86.3306 134.071L90.3306 141.415H85.6118L81.7056 134.071H86.3306ZM91.2134 128.915V125.415H105.12V128.915H100.307V141.415H96.0259V128.915H91.2134ZM106.754 141.415V125.415H118.286V128.915H111.098V131.665H117.692V135.165H111.098V137.915H118.254V141.415H106.754ZM130.831 130.696C130.763 130.42 130.656 130.178 130.51 129.969C130.364 129.756 130.182 129.576 129.963 129.43C129.75 129.279 129.5 129.167 129.213 129.094C128.932 129.016 128.622 128.977 128.284 128.977C127.555 128.977 126.932 129.152 126.416 129.5C125.906 129.849 125.515 130.352 125.245 131.008C124.979 131.665 124.846 132.456 124.846 133.383C124.846 134.321 124.974 135.123 125.229 135.79C125.484 136.456 125.864 136.967 126.37 137.321C126.875 137.675 127.502 137.852 128.252 137.852C128.914 137.852 129.463 137.756 129.901 137.563C130.344 137.37 130.674 137.097 130.893 136.743C131.112 136.389 131.221 135.972 131.221 135.493L131.971 135.571H128.315V132.477H135.409V134.696C135.409 136.154 135.099 137.402 134.479 138.438C133.864 139.469 133.015 140.261 131.932 140.813C130.854 141.36 129.617 141.633 128.221 141.633C126.664 141.633 125.297 141.303 124.12 140.641C122.943 139.98 122.023 139.037 121.362 137.813C120.706 136.589 120.377 135.133 120.377 133.446C120.377 132.123 120.578 130.951 120.979 129.93C121.385 128.909 121.948 128.047 122.666 127.344C123.385 126.636 124.216 126.102 125.159 125.743C126.101 125.378 127.112 125.196 128.19 125.196C129.138 125.196 130.018 125.331 130.831 125.602C131.648 125.868 132.37 126.248 132.995 126.743C133.625 127.232 134.133 127.813 134.518 128.485C134.903 129.157 135.138 129.894 135.221 130.696H130.831ZM152.934 133.415C152.934 135.196 152.588 136.698 151.895 137.922C151.202 139.141 150.267 140.066 149.09 140.696C147.913 141.321 146.601 141.633 145.153 141.633C143.694 141.633 142.377 141.318 141.2 140.688C140.028 140.053 139.096 139.125 138.403 137.907C137.715 136.683 137.372 135.185 137.372 133.415C137.372 131.633 137.715 130.133 138.403 128.915C139.096 127.691 140.028 126.766 141.2 126.141C142.377 125.511 143.694 125.196 145.153 125.196C146.601 125.196 147.913 125.511 149.09 126.141C150.267 126.766 151.202 127.691 151.895 128.915C152.588 130.133 152.934 131.633 152.934 133.415ZM148.465 133.415C148.465 132.456 148.338 131.649 148.083 130.993C147.833 130.331 147.46 129.831 146.965 129.493C146.476 129.149 145.872 128.977 145.153 128.977C144.434 128.977 143.827 129.149 143.333 129.493C142.843 129.831 142.471 130.331 142.215 130.993C141.965 131.649 141.84 132.456 141.84 133.415C141.84 134.373 141.965 135.183 142.215 135.844C142.471 136.5 142.843 137 143.333 137.344C143.827 137.683 144.434 137.852 145.153 137.852C145.872 137.852 146.476 137.683 146.965 137.344C147.46 137 147.833 136.5 148.083 135.844C148.338 135.183 148.465 134.373 148.465 133.415ZM163.569 130.415C163.527 129.894 163.332 129.487 162.983 129.196C162.639 128.904 162.116 128.758 161.413 128.758C160.965 128.758 160.597 128.813 160.311 128.922C160.03 129.027 159.821 129.17 159.686 129.352C159.551 129.534 159.48 129.743 159.475 129.977C159.465 130.17 159.499 130.344 159.577 130.5C159.66 130.652 159.79 130.79 159.967 130.915C160.144 131.034 160.371 131.144 160.647 131.243C160.923 131.342 161.251 131.43 161.631 131.508L162.944 131.79C163.829 131.977 164.587 132.224 165.217 132.532C165.847 132.839 166.363 133.201 166.764 133.618C167.165 134.029 167.459 134.493 167.647 135.008C167.84 135.524 167.939 136.086 167.944 136.696C167.939 137.748 167.676 138.639 167.155 139.368C166.634 140.097 165.889 140.652 164.92 141.032C163.957 141.412 162.798 141.602 161.444 141.602C160.053 141.602 158.84 141.396 157.803 140.985C156.772 140.573 155.97 139.941 155.397 139.086C154.829 138.227 154.543 137.128 154.538 135.79H158.663C158.689 136.279 158.811 136.691 159.03 137.024C159.249 137.357 159.556 137.61 159.952 137.782C160.353 137.954 160.829 138.04 161.381 138.04C161.845 138.04 162.233 137.982 162.545 137.868C162.858 137.753 163.095 137.594 163.256 137.391C163.418 137.188 163.501 136.956 163.506 136.696C163.501 136.451 163.42 136.237 163.264 136.055C163.113 135.868 162.863 135.701 162.514 135.555C162.165 135.404 161.694 135.264 161.1 135.133L159.506 134.79C158.09 134.482 156.972 133.969 156.155 133.25C155.342 132.527 154.939 131.54 154.944 130.29C154.939 129.274 155.209 128.386 155.756 127.625C156.308 126.86 157.071 126.264 158.045 125.836C159.025 125.409 160.147 125.196 161.413 125.196C162.704 125.196 163.821 125.412 164.764 125.844C165.707 126.277 166.433 126.886 166.944 127.672C167.459 128.454 167.72 129.368 167.725 130.415H163.569ZM169.596 141.415V125.415H181.127V128.915H173.94V131.665H180.534V135.165H173.94V137.915H181.096V141.415H169.596ZM183.282 141.415V125.415H190.188C191.375 125.415 192.415 125.631 193.305 126.063C194.196 126.495 194.889 127.118 195.383 127.93C195.878 128.743 196.125 129.717 196.125 130.852C196.125 131.998 195.87 132.964 195.36 133.75C194.855 134.537 194.144 135.131 193.227 135.532C192.316 135.933 191.25 136.133 190.032 136.133H185.907V132.758H189.157C189.667 132.758 190.102 132.696 190.461 132.571C190.826 132.441 191.105 132.235 191.297 131.954C191.495 131.672 191.594 131.305 191.594 130.852C191.594 130.394 191.495 130.021 191.297 129.735C191.105 129.443 190.826 129.23 190.461 129.094C190.102 128.954 189.667 128.883 189.157 128.883H187.625V141.415H183.282ZM192.657 134.071L196.657 141.415H191.938L188.032 134.071H192.657Z" fill="#EBEBEB"/>
<path d="M126.322 160.485C127.623 159.85 129.206 159.85 130.507 160.485C131.87 161.151 133.398 161.523 135.012 161.523C139.069 161.523 142.583 159.167 144.298 155.73C144.571 155.184 145.415 155.25 145.415 155.86C145.415 161.689 140.757 166.415 135.012 166.415C133.398 166.415 131.87 166.042 130.507 165.377C129.206 164.741 127.623 164.741 126.322 165.377C124.959 166.042 123.431 166.415 121.818 166.415C116.072 166.415 111.415 161.689 111.415 155.86C111.415 155.25 112.258 155.184 112.531 155.73C114.246 159.167 117.761 161.523 121.818 161.523C123.431 161.523 124.959 161.151 126.322 160.485Z" fill="#2A2A2A"/>
<path d="M131.691 174.312C133.802 173.777 135.565 175.555 133.612 176.517C131.881 177.37 129.933 177.849 127.874 177.849C126.442 177.849 125.065 177.618 123.776 177.19C121.707 176.504 123.223 174.493 125.39 174.738C126.041 174.811 126.703 174.849 127.374 174.849C128.864 174.849 130.31 174.663 131.691 174.312Z" fill="#2A2A2A"/>
</g>
<defs>
<clipPath id="paint1_diamond_1_2_clip_path"><path d="M116.29 85.4146C121.679 76.0812 135.15 76.0812 140.539 85.4146L199.429 187.415C204.817 196.748 198.081 208.415 187.304 208.415H69.5248C58.7476 208.415 52.0119 196.748 57.4005 187.415L116.29 85.4146Z" stroke-width="10"/></clipPath><linearGradient id="paint0_linear_1_2" x1="128.415" y1="31.4146" x2="128.415" y2="207.415" gradientUnits="userSpaceOnUse">
<stop stop-color="#D9D9D9"/>
<stop offset="1" stop-color="#2A2A2A" stop-opacity="0"/>
</linearGradient>
<linearGradient id="paint1_diamond_1_2" x1="0" y1="0" x2="500" y2="500" gradientUnits="userSpaceOnUse">
<stop stop-color="#8584CA"/>
<stop offset="1" stop-color="#EDDCFC" stop-opacity="0.56"/>
</linearGradient>
<clipPath id="clip0_1_2">
<rect width="256" height="256" fill="white"/>
</clipPath>
</defs>
</svg>
